PathFileType	4	(X/Y/Z)	/Users/mathieubourgeois/Desktop/Analyse/Traitement/Sujet_07/Transformed_Static_Sujet_07_Tpose.trc
DataRate	CameraRate	NumFrames	NumMarkers	Units	OrigDataRate	OrigDataStartFrame	OrigNumFrames
120.000000	120.000000	4	36	mm	120.000000	214	286
Frame#	Time	RFHD			LFHD			RBHD			LBHD			C7			CLAV			RSHO			LSHO			STRN			T10			RBWT			LBWT			RFWT			LFWT			RKNI			LKNI			RKNE			LKNE			LANI			RANI			LANE			RANE			LTOE			RTOE			LHEE			RHEE			RHUM			LHUM			RRAD			LRAD			RWRA			RWRB			LWRA			LWRB			LCAR			RCAR			
		X1	Y1	Z1	X2	Y2	Z2	X3	Y3	Z3	X4	Y4	Z4	X5	Y5	Z5	X6	Y6	Z6	X7	Y7	Z7	X8	Y8	Z8	X9	Y9	Z9	X10	Y10	Z10	X11	Y11	Z11	X12	Y12	Z12	X13	Y13	Z13	X14	Y14	Z14	X15	Y15	Z15	X16	Y16	Z16	X17	Y17	Z17	X18	Y18	Z18	X19	Y19	Z19	X20	Y20	Z20	X21	Y21	Z21	X22	Y22	Z22	X23	Y23	Z23	X24	Y24	Z24	X25	Y25	Z25	X26	Y26	Z26	X27	Y27	Z27	X28	Y28	Z28	X29	Y29	Z29	X30	Y30	Z30	X31	Y31	Z31	X32	Y32	Z32	X33	Y33	Z33	X34	Y34	Z34	X35	Y35	Z35	X36	Y36	Z36	

215	1.783333333333333	-537.8408203125	1763.263427734375	325.8325805664061	-404.0530090332032	1762.1162109375	336.9266662597655	-540.100341796875	1754.059692382812	171.6264190673826	-397.4423828125	1751.570434570312	169.1363677978514	-467.259033203125	1586.0107421875	146.639923095703	-480.7333679199219	1534.483154296875	268.0351562499998	-621.7852783203125	1598.042358398438	174.4533233642576	-331.7802124023438	1598.05126953125	170.2477416992186	-478.6689758300782	1347.771240234375	309.3349609374999	-473.2413940429688	1339.649658203125	95.32580566406236	-537.3047485351562	1099.492309570312	177.2807464599608	-422.3247375488281	1093.935424804688	174.3761138916014	-586.306640625	1064.328369140625	351.7821960449218	-370.9996032714844	1065.194580078125	344.597686767578	-543.8157348632812	476.1288146972656	205.1761016845702	-440.8055419921875	476.7085266113281	171.1792755126952	-647.2039184570312	532.9721069335938	206.4680938720702	-334.4407043457031	518.5318603515625	183.2171478271484	-426.5105895996094	86.55515289306642	210.7528839111328	-541.2398071289062	89.76071929931642	203.5558776855468	-342.7611083984375	68.94299316406251	179.8448333740234	-626.8497314453125	72.18324279785158	179.432891845703	-350.5082397460938	29.58942604064944	397.0987548828124	-605.3988647460938	32.02478790283205	393.0677185058593	-390.5379943847656	50.22940063476563	132.8514862060546	-583.566162109375	50.93209457397462	127.6394424438476	-938.638427734375	1467.321044921875	218.819625854492	-20.19824600219729	1439.186157226562	218.7926483154296	-943.6085205078125	1517.6640625	175.1150207519529	-4.93445682525637	1493.80419921875	180.3652191162109	-1212.09619140625	1592.445190429688	218.2964935302732	-1217.891845703125	1525.955078125	188.8788299560545	254.8948516845703	1544.423461914062	244.3575744628906	265.302001953125	1471.495361328125	223.4862060546874	359.9610290527344	1525.870361328125	218.7122650146484	-1320.68994140625	1571.11181640625	198.1916809082029	
216	1.791666666666667	-537.7860717773438	1763.263305664062	325.9476013183592	-403.9987487792969	1762.094604492188	337.0178222656248	-540.0572509765625	1754.084106445312	171.739532470703	-397.4019165039062	1751.549926757812	169.2291412353514	-467.2289123535156	1586.011108398438	146.7368164062499	-480.7140502929688	1534.4775390625	268.1252136230467	-621.7627563476562	1598.018188476562	174.544708251953	-331.7616271972656	1598.069458007812	170.3882293701171	-478.6571960449219	1347.755126953125	309.4064941406249	-473.2169799804688	1339.658325195312	95.40541839599595	-537.30224609375	1099.483032226562	177.3582611083983	-422.2992248535156	1093.939575195312	174.4716033935546	-586.3395385742188	1064.325439453125	351.8324584960936	-371.0245056152344	1065.184204101562	344.6932373046874	-543.8316040039062	476.1246337890625	205.2170867919921	-440.8109741210938	476.7088012695312	171.2007598876952	-647.2174682617188	532.9794311523438	206.500274658203	-334.4522094726562	518.5289306640625	183.2428741455078	-426.5147094726562	86.55747985839845	210.7481689453124	-541.238037109375	89.76522064208986	203.5578155517578	-342.7601318359375	68.94930267333986	179.8227081298828	-626.8485107421875	72.18045043945314	179.4199218749999	-350.5125427246094	29.58917999267581	397.1089477539062	-605.3989868164062	32.02967453002932	393.0743408203124	-390.5477294921875	50.22679901123048	132.862075805664	-583.5623168945312	50.92912673950196	127.6467895507812	-938.5939331054688	1467.30126953125	218.8993530273436	-20.18890571594241	1439.167236328125	218.9454040527343	-943.5714721679688	1517.6875	175.2352294921873	-4.911937236785911	1493.745239257812	180.4711608886718	-1212.066040039062	1592.413452148438	218.4265136718748	-1217.873413085938	1525.923950195312	189.0014648437498	254.9122161865234	1544.396362304688	244.4302062988281	265.3123474121094	1471.451171875	223.6049652099609	360.0006103515625	1525.826782226562	218.8280181884765	-1320.6923828125	1571.067138671875	198.3529663085935	
217	1.8	-537.7221069335938	1763.274047851562	326.0602416992186	-403.9273681640626	1762.062377929688	337.1173095703123	-540.0155639648438	1754.080078125	171.8804779052733	-397.36474609375	1751.53955078125	169.3472442626951	-467.1994018554688	1586.013549804688	146.8423919677733	-480.6911010742188	1534.464721679688	268.2263793945311	-621.73974609375	1598.006469726562	174.6255035400389	-331.7403564453125	1598.093872070312	170.5295410156249	-478.6539001464844	1347.736572265625	309.4969482421874	-473.1833801269531	1339.65380859375	95.50438690185533	-537.2911987304688	1099.48291015625	177.4378814697264	-422.2827453613281	1093.938598632812	174.5617065429686	-586.35986328125	1064.31640625	351.8822631835936	-371.0525207519532	1065.16455078125	344.7923583984374	-543.8365478515625	476.1257934570312	205.2434692382812	-440.8080749511719	476.7147216796875	171.2285919189452	-647.2236328125	532.9829711914062	206.5216064453124	-334.4495239257812	518.5296630859375	183.2828063964843	-426.5138854980469	86.55792236328126	210.7505340576171	-541.2312622070312	89.77243804931642	203.5634613037109	-342.7510986328125	68.94506072998048	179.8311462402343	-626.834228515625	72.17835235595705	179.4262390136718	-350.5118713378907	29.58291625976565	397.1029968261718	-605.3966064453125	32.02749252319338	393.0707702636718	-390.5319213867188	50.23499298095704	132.8521575927734	-583.5531005859375	50.93805313110352	127.640396118164	-938.56982421875	1467.291748046875	218.9723968505857	-20.17718505859378	1439.139404296875	219.0899658203124	-943.544921875	1517.692993164062	175.3328247070311	-4.896653652191184	1493.686401367188	180.5742797851562	-1212.056274414062	1592.376342773438	218.5738830566404	-1217.851440429688	1525.906372070312	189.0919799804685	254.9381866455078	1544.365600585938	244.4967651367187	265.3398742675781	1471.403198242188	223.7065124511718	360.0377807617188	1525.773071289062	218.9439239501953	-1320.695556640625	1571.023315429688	198.5141143798826	
218	1.808333333333333	-537.6641845703125	1763.268920898438	326.1949157714842	-403.8459472656251	1762.037109375	337.2165527343748	-539.9758911132812	1754.088623046875	172.011764526367	-397.3241271972656	1751.546508789062	169.4317474365233	-467.1742248535156	1586.021240234375	146.9604492187499	-480.6788635253907	1534.457397460938	268.3183288574217	-621.7166748046875	1597.986572265625	174.7120819091795	-331.7269592285156	1598.11328125	170.6802520751952	-478.6438903808594	1347.731201171875	309.5808715820311	-473.1334228515625	1339.65771484375	95.60733032226548	-537.2731323242188	1099.48388671875	177.5044860839843	-422.2420959472656	1093.925048828125	174.6564331054686	-586.3970947265625	1064.306518554688	351.9474487304686	-371.0763244628907	1065.142944335938	344.9042968749999	-543.8424682617188	476.1263732910156	205.278579711914	-440.8133850097656	476.7167358398438	171.2592010498046	-647.2319946289062	532.9823608398438	206.5509796142577	-334.4609680175781	518.5353393554688	183.3271331787109	-426.5137023925781	86.54544067382814	210.7524261474609	-541.2313842773438	89.7693328857422	203.5626068115234	-342.7539672851562	68.9511184692383	179.8318176269531	-626.8365478515625	72.17443084716798	179.4255828857421	-350.5269165039063	29.58743667602542	397.1128540039062	-605.4080810546875	32.02473068237307	393.0809936523437	-390.5360107421875	50.22495651245118	132.8519287109374	-583.5652465820312	50.94319915771485	127.6410827636718	-938.5626220703125	1467.282958984375	219.0575714111326	-20.15698242187503	1439.130493164062	219.2266235351562	-943.5460815429688	1517.703979492188	175.4332885742186	-4.874577999115012	1493.65380859375	180.6714782714843	-1212.049926757812	1592.3427734375	218.7175140380857	-1217.82666015625	1525.888671875	189.1867828369138	254.9641571044922	1544.341430664062	244.5530700683593	265.3486938476562	1471.36181640625	223.7942352294921	360.068115234375	1525.711303710938	219.040298461914	-1320.672485351562	1570.972412109375	198.6935882568357	
